<?xml version="1.0" encoding="UTF-8"?><svg id="uuid-edaf50a2-5486-4d87-9e76-057a044626ed" xmlns="http://www.w3.org/2000/svg" viewBox="0 0 359.32 154.99"><g id="uuid-8de8d720-25de-4270-a234-0e9521f1e95b"><path class="uuid-a786f62f-d885-47e4-b33a-28f79d9dd879" d="m75.33,0c7.64,0,14.41,1.66,20.3,4.97,5.89,3.31,10.5,8.21,13.84,14.69,3.34,6.48,5.01,13.21,5.01,20.17,0,12.34-3.58,25.29-10.74,38.85-7.16,13.56-16.52,23.91-28.07,31.04s-23.5,10.7-35.84,10.7c-8.89,0-16.32-1.97-22.29-5.9-5.97-3.93-10.39-9.13-13.25-15.58-2.86-6.45-4.29-12.71-4.29-18.77,0-10.76,2.59-21.39,7.77-31.89,5.18-10.5,11.37-19.28,18.56-26.33,7.19-7.05,14.86-12.47,23.01-16.26C57.49,1.9,66.16,0,75.33,0Zm-2.89,5.44c-5.66,0-11.2,1.4-16.6,4.2-5.41,2.8-10.77,7.39-16.09,13.76-5.32,6.37-10.11,14.71-14.35,25.01-5.21,12.68-7.81,24.66-7.81,35.92,0,8.04,2.07,15.16,6.2,21.36,4.13,6.2,10.47,9.3,19.02,9.3,5.15,0,10.2-1.27,15.16-3.82,4.95-2.55,10.12-6.91,15.5-13.08,6.74-7.76,12.4-17.65,16.99-29.68,4.59-12.03,6.88-23.25,6.88-33.67,0-7.7-2.07-14.51-6.2-20.42-4.13-5.92-10.36-8.87-18.68-8.87Z"/><path class="uuid-a786f62f-d885-47e4-b33a-28f79d9dd879" d="m153.71,40.93l-5.86,19.53c6.17-7.25,11.68-12.31,16.52-15.2,4.84-2.89,9.78-4.33,14.82-4.33s9.34,2,12.91,5.99c3.57,3.99,5.35,9.19,5.35,15.58,0,12.46-5.07,25.12-15.2,38-10.13,12.88-21.94,19.32-35.41,19.32-2.83,0-5.34-.31-7.52-.93-2.18-.62-4.63-1.73-7.35-3.31l-6.2,21.91c-1.25,4.3-1.87,7.1-1.87,8.41s.33,2.31.98,3.18c.65.88,1.71,1.56,3.18,2.04,1.47.48,4.39.72,8.75.72l-.76,3.14h-40l.85-3.14c5.27-.23,8.82-1.13,10.66-2.72,1.84-1.59,3.78-5.97,5.82-13.16l21.49-74.39c1.3-4.7,1.95-7.61,1.95-8.75,0-1.53-.44-2.72-1.32-3.57-.88-.85-2.22-1.27-4.03-1.27-1.64,0-3.94.2-6.88.59v-3.31l29.13-4.33Zm-19.79,67.94c3.51,4.19,8.24,6.28,14.18,6.28,2.94,0,5.94-.82,9-2.46,3.06-1.64,6.04-4.08,8.96-7.3,2.92-3.23,5.53-6.95,7.86-11.17,2.32-4.22,4.4-9.19,6.24-14.9,1.84-5.72,2.76-11.38,2.76-16.98,0-4.53-1.03-8-3.1-10.4-2.07-2.41-4.49-3.61-7.26-3.61-6.11,0-12.16,3.51-18.13,10.53-5.97,7.02-10.35,15.23-13.12,24.63l-7.39,25.39Z"/><path class="uuid-a786f62f-d885-47e4-b33a-28f79d9dd879" d="m222.93,85.77c-.4,2.83-.59,5.18-.59,7.05,0,5.04,1.78,9.33,5.35,12.87,3.57,3.54,7.9,5.31,12.99,5.31,4.08,0,8-.83,11.76-2.51,3.76-1.67,9.35-5.36,16.77-11.08l1.78,2.46c-13.42,13.31-26.21,19.96-38.39,19.96-8.27,0-14.49-2.6-18.68-7.81-4.19-5.21-6.28-10.96-6.28-17.24,0-8.44,2.6-17.07,7.81-25.9,5.21-8.83,11.75-15.7,19.62-20.59,7.87-4.9,15.97-7.35,24.29-7.35,6,0,10.45,1.22,13.33,3.65,2.89,2.44,4.33,5.32,4.33,8.66,0,4.7-1.87,9.2-5.61,13.5-4.93,5.6-12.17,10.14-21.74,13.59-6.34,2.32-15.26,4.13-26.75,5.44Zm.59-4.16c8.38-.96,15.2-2.6,20.47-4.93,6.96-3.11,12.19-6.84,15.67-11.17,3.48-4.33,5.22-8.45,5.22-12.36,0-2.38-.75-4.3-2.25-5.77-1.5-1.47-3.64-2.21-6.41-2.21-5.78,0-11.9,3.07-18.39,9.21-6.48,6.14-11.25,15.22-14.31,27.22Z"/><path class="uuid-a786f62f-d885-47e4-b33a-28f79d9dd879" d="m317.79,40.93l-11.29,38.64c10.59-15.8,18.7-26.19,24.33-31.17,5.63-4.98,11.05-7.47,16.26-7.47,2.83,0,5.17.93,7.01,2.8,1.84,1.87,2.76,4.3,2.76,7.3,0,3.4-.82,7.93-2.46,13.59l-10.36,35.75c-1.19,4.13-1.78,6.65-1.78,7.56,0,.79.23,1.46.68,2,.45.54.93.81,1.44.81.68,0,1.5-.37,2.46-1.1,3-2.38,6.28-6,9.85-10.87l2.63,1.61c-5.27,7.53-10.25,12.91-14.95,16.14-3.28,2.21-6.23,3.31-8.83,3.31-2.1,0-3.77-.64-5.01-1.91-1.25-1.27-1.87-2.99-1.87-5.14,0-2.72.96-7.39,2.89-14.01l9.85-34.14c1.25-4.25,1.87-7.56,1.87-9.94,0-1.13-.37-2.05-1.1-2.76-.74-.71-1.64-1.06-2.72-1.06-1.59,0-3.48.68-5.69,2.04-4.19,2.55-8.55,6.75-13.08,12.61-4.53,5.86-9.31,13.35-14.35,22.46-2.66,4.81-4.87,10.08-6.62,15.8l-4.25,14.01h-12.74l15.46-53.16c1.81-6.4,2.72-10.25,2.72-11.55s-.5-2.34-1.49-3.27c-.99-.93-2.22-1.4-3.69-1.4-.68,0-1.87.11-3.57.34l-3.23.51-.51-3.06,29.38-5.27Z"/></g></svg>