<?xml version="1.0" encoding="UTF-8"?><svg id="uuid-8ad53d96-71b1-409a-9951-0e1507f56f45" xmlns="http://www.w3.org/2000/svg" viewBox="0 0 452.86 211.33"><defs><style>.uuid-97d3926d-ff38-418e-95b1-078acce337d7{fill:#fff;stroke-width:0px;}</style></defs><g id="uuid-d2303fa2-9501-4a53-bfeb-017b71b1217f"><path class="uuid-97d3926d-ff38-418e-95b1-078acce337d7" d="m0,90.57h60.38V30.19h-30.19V0h150.95v30.19h-30.19v60.38h60.38v30.19h-60.38v90.57h-30.19v-90.57h-30.19v30.19h-30.19v-30.19H0v-30.19Zm0,90.57h30.19v30.19H0v-30.19Zm30.19-30.19h30.19v30.19h-30.19v-30.19Zm90.57-60.38V30.19h-30.19v60.38h30.19Z"/><path class="uuid-97d3926d-ff38-418e-95b1-078acce337d7" d="m362.29,90.57v-30.19h30.19v60.38h-30.19v60.38h30.19v30.19h-90.57v-30.19h30.19v-60.38h-30.19v60.38h-30.19V60.38h-30.19v-30.19h60.38V0h30.19v30.19h30.19v30.19h-60.38v30.19h60.38Zm-120.76,90.57h30.19v30.19h-30.19v-30.19Zm211.33-60.38h-30.19v-60.38h-30.19V0h30.19v30.19h30.19v90.57Zm-60.38,0h30.19v60.38h-30.19v-60.38Zm30.19,60.38h30.19v30.19h-30.19v-30.19Z"/></g></svg>