<?xml version="1.0" encoding="UTF-8"?><svg id="uuid-73f6affe-79c4-46f3-a0a2-699706b67961" xmlns="http://www.w3.org/2000/svg" viewBox="0 0 458.89 217.37"><defs><style>.uuid-9d3ac744-89a6-483b-ad2c-720fdcfc3925{fill:#fff;stroke-width:0px;}</style></defs><g id="uuid-148e1df2-c126-40a9-bb39-91e8607621e1"><path class="uuid-9d3ac744-89a6-483b-ad2c-720fdcfc3925" d="m0,0h217.37v24.15h-48.3v72.46h48.3v24.15h-48.3v96.61h-24.15v-96.61h-72.46v24.15h-24.15v-24.15H0v-24.15h48.3V24.15H0V0Zm0,193.22h24.15v24.15H0v-24.15Zm24.15-48.3h24.15v48.3h-24.15v-48.3Zm48.3-48.3h72.46V24.15h-72.46v72.46Z"/><path class="uuid-9d3ac744-89a6-483b-ad2c-720fdcfc3925" d="m265.68,0h24.15v24.15h72.46V0h24.15v24.15h72.46v24.15h-24.15v96.61h-24.15V48.3h-48.3v24.15h-24.15v-24.15h-48.3v48.3h48.3v96.61h-24.15v-72.46h-48.3V48.3h-24.15v-24.15h24.15V0Zm-24.15,120.76h24.15v48.3h-24.15v-48.3Zm72.46,96.61h-48.3v-24.15h48.3v24.15Zm24.15-24.15h24.15v24.15h-24.15v-24.15Zm24.15-96.61h24.15v48.3h-24.15v-48.3Zm0,72.46h24.15v-24.15h24.15v48.3h-48.3v-24.15Zm48.3,24.15h48.3v24.15h-48.3v-24.15Z"/></g></svg>