<?xml version="1.0" encoding="UTF-8"?><svg id="uuid-8e98be84-35f1-4902-87d7-229dd94f676b" xmlns="http://www.w3.org/2000/svg" viewBox="0 0 462.92 221.4"><defs><style>.uuid-4662a26a-3969-45d3-aa57-45610ba9e475{fill:#fff;stroke-width:0px;}</style></defs><g id="uuid-f3b83c5a-42f9-4f5c-a44d-84e27f919f2b"><path class="uuid-4662a26a-3969-45d3-aa57-45610ba9e475" d="m60.38,20.13H20.13V0h201.27v20.13h-40.25v80.51h40.25v20.13h-40.25v100.63h-20.13v-100.63h-80.51v40.25h-20.13v-40.25H0v-20.13h60.38V20.13ZM20.13,201.27h20.13v20.13h-20.13v-20.13Zm20.13-40.25h20.13v40.25h-20.13v-40.25Zm40.25-60.38h80.51V20.13h-80.51v80.51Z"/><path class="uuid-4662a26a-3969-45d3-aa57-45610ba9e475" d="m261.65,60.38h-20.13v-20.13h40.25v-20.13h20.13v20.13h40.25v20.13h-60.38v40.25h60.38v120.76h-40.25v-20.13h20.13v-80.51h-40.25v80.51h-20.13V60.38Zm-20.13,140.89h20.13v20.13h-20.13v-20.13ZM261.65,0h20.13v20.13h-20.13V0Zm80.51,60.38h20.13v20.13h-20.13v-20.13ZM362.29,0h20.13v40.25h80.51v20.13h-20.13v100.63h-20.13V60.38h-60.38V0Zm0,80.51h20.13v60.38h-20.13v-60.38Zm0,120.76h20.13v20.13h-20.13v-20.13Zm20.13-60.38h20.13v20.13h-20.13v-20.13Zm0,40.25h20.13v20.13h-20.13v-20.13Zm20.13-20.13h20.13v20.13h-20.13v-20.13Zm20.13,20.13h20.13v20.13h-20.13v-20.13Zm20.13,20.13h20.13v20.13h-20.13v-20.13Z"/></g></svg>