<?xml version="1.0" encoding="UTF-8"?><svg id="uuid-b924071d-3780-410f-82cd-9acfd8b0e905" xmlns="http://www.w3.org/2000/svg" viewBox="0 0 468.07 241.52"><defs><style>.uuid-d0fb5970-494b-44ba-8fa1-9a68fdc074e2{fill:#fff;stroke-width:0px;}</style></defs><g id="uuid-f941cba0-fa74-4656-b003-0327d70f744d"><path class="uuid-d0fb5970-494b-44ba-8fa1-9a68fdc074e2" d="m181.14,7.49V0h14.97v14.97h15.22v15.22h-45.16v75.6h29.95v-15.22h15.22v15.22h15.22v14.97h-60.38v120.76h-15.22v-120.76h-75.6v60.38h-14.97v30.19h-14.97v15.22h-15.22v14.97h-15.22v-14.97h15.22v-15.22h15.22v-30.19h14.97v-60.38H0v-14.97h60.38V30.19H14.97v-15.22h166.17v-7.49Zm-30.19,60.38V30.19h-75.6v75.6h75.6v-37.92Z"/><path class="uuid-d0fb5970-494b-44ba-8fa1-9a68fdc074e2" d="m377.26,22.7V0h15.22v45.41h-15.22v14.97h60.38v-14.97h15.22v14.97h15.22v14.97h-30.43v45.41h-14.97v30.19h-14.97v15.22h14.97v29.95h14.97v15.22h30.43v15.22h-15.22v14.97h-15.22v-14.97h-14.97v-30.43h-14.97v-29.95h-15.22v29.95h-15.22v15.22h-14.97v15.22h-14.97v14.97h-15.22v-14.97h15.22v-15.22h14.97v-15.22h14.97v-29.95h15.22v-15.22h-15.22v-30.19h-14.97v-30.19h14.97v30.19h15.22v30.19h15.22v-30.19h14.97v-45.41h-135.74v30.43h29.95v-15.22h15.22v15.22h15.22v14.97h-15.22v90.57h-15.22v15.22h-14.97v-15.22h-14.97v-15.22h14.97v15.22h14.97v-90.57h-29.95v60.38h-15.22v30.19h-15.22v15.22h-14.97v-15.22h14.97v-30.19h15.22v-105.79h-30.19v-14.97h120.76v-14.97h14.97v-22.7Zm-105.55-15.22V0h15.22v14.97h14.97v30.43h-14.97V14.97h-15.22v-7.49Z"/></g></svg>