<?xml version="1.0" encoding="UTF-8"?><svg id="uuid-426339b3-78f9-441b-ac94-42c6eb1c9b90" xmlns="http://www.w3.org/2000/svg" viewBox="0 0 124.71 58.2"><defs><style>.uuid-348e1f2f-285f-4263-b754-dc60c000e8dc{fill:#fff;stroke-width:0px;}</style></defs><g id="uuid-2af91baf-1d39-4063-9b2a-ad9aad9e98ee"><path class="uuid-348e1f2f-285f-4263-b754-dc60c000e8dc" d="m0,8.31h8.31v49.89H0V8.31ZM8.31,0h8.31v8.31h-8.31V0Zm8.31,16.63h24.94v-8.31h-16.63V0h33.26v8.31h-8.31v8.31h8.31v24.94h-24.94v8.31h-8.31v-8.31h-8.31v-24.94Zm0,33.26h8.31v8.31h-8.31v-8.31Zm8.31-16.63h8.31v-8.31h-8.31v8.31Zm33.26,24.94h-24.94v-8.31h24.94v8.31Zm-8.31-33.26h-8.31v8.31h8.31v-8.31Z"/><path class="uuid-348e1f2f-285f-4263-b754-dc60c000e8dc" d="m66.51,49.88h8.31v-8.31h-8.31v-8.31h8.31v-16.63h-8.31v-8.31h8.31V0h8.31v49.88h8.31v8.31h-24.94v-8.31Zm24.94-24.94h16.63v-8.31h-16.63v-8.31h16.63V0h8.31v8.31h8.31v16.63h-8.31v8.31h8.31v8.31h-8.31v8.31h8.31v8.31h-24.94v-8.31h8.31v-16.63h-16.63v-8.31Zm0,16.63h8.31v8.31h-8.31v-8.31Z"/></g></svg>