<?xml version="1.0" encoding="UTF-8"?><svg id="uuid-5f637cf5-fa9c-405a-b026-8ac6a45ae392" xmlns="http://www.w3.org/2000/svg" viewBox="0 0 126.38 59.86"><defs><style>.uuid-06d0af57-bbdd-4733-b716-d6ac60cc0cfb{fill:#fff;stroke-width:0px;}</style></defs><g id="uuid-6b59503e-241a-4a64-bb83-c86cf09c026e"><path class="uuid-06d0af57-bbdd-4733-b716-d6ac60cc0cfb" d="m0,19.95h6.65v-6.65h6.65v46.56h-6.65V26.61H0v-6.65ZM13.3,0h6.65v13.3h-6.65V0Zm6.65,13.3h19.95v-6.65h-13.3V0h33.26v6.65h-13.3v6.65h13.3v33.26h-19.95v6.65h-6.65v-6.65h-13.3V13.3Zm13.3,46.56h-13.3v-6.65h13.3v6.65Zm-6.65-33.26h13.3v-6.65h-13.3v6.65Zm13.3,13.3v-6.65h-13.3v6.65h13.3Zm19.95,13.3v6.65h-19.95v-6.65h19.95Zm-13.3-26.61h6.65v-6.65h-6.65v6.65Zm6.65,6.65h-6.65v6.65h6.65v-6.65Z"/><path class="uuid-06d0af57-bbdd-4733-b716-d6ac60cc0cfb" d="m106.42,6.65V0h6.65v6.65h13.3v26.61h-6.65v-6.65h-6.65v13.3h13.3v6.65h-13.3v6.65h-26.61v-13.3h-6.65v13.3h6.65v6.65h-19.95v-6.65h6.65v-6.65h-6.65v-6.65h6.65v-19.95h-6.65v-6.65h6.65V0h6.65v13.3h6.65v6.65h-6.65v13.3h26.61v-6.65h-19.95v-6.65h19.95v-6.65h-19.95v-6.65h19.95Zm0,39.91v-6.65h-13.3v6.65h13.3Zm6.65-26.61h6.65v-6.65h-6.65v6.65Zm0,33.26h13.3v6.65h-13.3v-6.65Z"/></g></svg>