<?xml version="1.0" encoding="UTF-8"?><svg id="uuid-c9c4f834-250f-4119-8fe2-d1cb906e476f" xmlns="http://www.w3.org/2000/svg" viewBox="0 0 127.48 60.97"><defs><style>.uuid-5003f464-0a18-4f77-b55a-bc63cd4feb53{fill:#fff;stroke-width:0px;}</style></defs><g id="uuid-2014dc59-dd29-44c2-aa17-830ba5ae3eb7"><path class="uuid-5003f464-0a18-4f77-b55a-bc63cd4feb53" d="m11.09,60.97h-5.54V27.71H0v-5.54h5.54v-11.08h5.54v49.88ZM11.09,0h5.54v11.09h-5.54V0Zm16.63,60.97h-11.08v-5.54h11.08v5.54Zm-5.54-49.88h16.63v-5.54h-16.63V0h38.8v5.54h-16.63v5.54h16.63v27.71h-16.63v5.54h-5.54v-5.54h-5.54v5.54h-5.54v-5.54h-5.54V11.09Zm16.63,5.54h-11.09v5.54h11.09v-5.54Zm-11.09,16.63h11.09v-5.54h-11.09v5.54Zm0,16.63h5.54v5.54h-5.54v-5.54Zm5.54-5.54h5.54v5.54h-5.54v-5.54Zm5.54,5.54h5.54v5.54h-5.54v-5.54Zm16.63-27.71v-5.54h-11.08v5.54h11.08Zm-11.08,5.54v5.54h11.08v-5.54h-11.08Zm16.63,27.71v5.54h-16.63v-5.54h16.63Z"/><path class="uuid-5003f464-0a18-4f77-b55a-bc63cd4feb53" d="m66.51,33.26h5.54v-16.63h-5.54v-5.54h5.54V0h5.54v11.09h5.54v5.54h-5.54v11.09h5.54v5.54h-5.54v27.71h-11.09v-5.54h5.54v-16.63h-5.54v-5.54Zm16.63-16.63h16.63v-5.54h-16.63v-5.54h16.63V0h5.54v5.54h22.17v5.54h-5.54v5.54h5.54v5.54h-5.54v11.09h-16.63v5.54h16.63v5.54h-16.63v11.09h-11.09v-5.54h5.54v-16.63h-11.09v-5.54h11.09v-5.54h-16.63v-5.54Zm0,33.26h5.54v11.09h-5.54v-11.09Zm5.54-11.09h5.54v11.09h-5.54v-11.09Zm27.71-22.17v-5.54h-11.09v5.54h11.09Zm0,5.54h-11.09v5.54h11.09v-5.54Zm11.08,33.26v5.54h-22.17v-5.54h22.17Z"/></g></svg>