<?xml version="1.0" encoding="UTF-8"?><svg id="uuid-d69494f6-5507-4212-a452-1554425f7c00" xmlns="http://www.w3.org/2000/svg" viewBox="0 0 128.9 66.51"><defs><style>.uuid-5598e915-bd66-49b7-83a3-6265edbdfd34{fill:#fff;stroke-width:0px;}</style></defs><g id="uuid-50894c6c-b3de-4b13-a098-f1b6e303e237"><path class="uuid-5598e915-bd66-49b7-83a3-6265edbdfd34" d="m12.5,8.31V0h4.12v16.63h-4.12v49.89h-4.19V29.13h-4.19v4.12H0v-4.12h4.12v-4.19h4.19v-8.31h4.19v-8.31ZM54.01,2.06V0h4.19v4.12h4.19v4.19h-20.82v8.31h12.44v-4.12h4.19v4.12h4.19v4.12h-4.19v20.82h-4.19v-4.19h-12.44v12.5h-4.19v4.12h8.38v4.19h16.63v4.19h-4.19v4.12h-4.19v-4.12h-8.25v-4.19h-8.38v-4.19h-4.12v4.19h-4.12v4.19h-4.19v4.12h-8.31v-4.12h8.31v-4.19h4.19v-4.19h4.12v-4.12h-4.12v-4.12h-4.19v-4.19h-4.19v-24.94h16.63v-8.31h-16.63v-4.19h33.26v-2.06Zm-16.63,20.82v-2.13h-12.44v4.19h12.44v-2.06Zm0,8.31v-2.06h-12.44v4.12h12.44v-2.06Zm0,12.44v-6.25h-12.44v4.19h4.19v4.19h4.12v4.12h4.12v-6.25Zm16.63-20.75v-2.13h-12.44v4.19h12.44v-2.06Zm0,8.31v-2.06h-12.44v4.12h12.44v-2.06Z"/><path class="uuid-5598e915-bd66-49b7-83a3-6265edbdfd34" d="m79.02,8.31V0h4.12v16.63h4.12v4.12h-4.12v8.38h4.12v-4.19h16.63v-4.19h-12.44v-4.12h12.44v-4.12h-16.63v-4.19h16.63V0h4.19v8.31h8.31v-4.19h4.12v4.19h4.19v4.19h-16.63v4.12h12.44v8.31h8.38v4.19h-8.38v8.25h-12.44v8.38h8.31v-4.19h4.12v4.19h4.19v4.12h-16.63v12.5h12.44v-4.19h8.38v4.19h-4.19v4.12h-16.63v-4.12h-8.31v-4.19h-8.31v4.19h-4.19v4.12h-4.12v-4.12h-4.12v4.12h-4.19v-4.12h-4.19v-4.19h4.19v4.19h4.19v-25.01h-4.19v4.19h-8.31v-4.19h8.31v-4.12h4.19v-12.5h-12.5v-4.12h12.5v-8.31Zm24.88,22.88v-2.06h-16.63v4.12h-4.12v29.13h4.12v-4.19h4.19v-16.63h4.19v12.44h4.12v4.19h4.12v-20.82h-12.44v-4.12h12.44v-2.06Zm12.5-8.31v-2.13h-8.31v4.19h8.31v-2.06Zm0,8.31v-2.06h-8.31v4.12h8.31v-2.06Z"/></g></svg>