<?xml version="1.0" encoding="UTF-8"?><svg id="uuid-5a1e3cd9-dff7-49e6-89f7-e9f32698cf07" xmlns="http://www.w3.org/2000/svg" viewBox="0 0 820 288.25"><defs><style>.uuid-15661bce-bd7c-4c14-91f9-1b999430cb87{fill:#fff;stroke-width:0px;}</style></defs><g id="uuid-c5ad039b-bc37-423d-b7d2-db7a188d416a"><path class="uuid-15661bce-bd7c-4c14-91f9-1b999430cb87" d="m71.26,48.97h6.37c-1.1-.04-2.2-.06-3.32-.06-1.05,0-2.06.02-3.06.06Z"/><path class="uuid-15661bce-bd7c-4c14-91f9-1b999430cb87" d="m66.86,53.84c4.18-3.68,11.07-5.69,20.66-6.03.99-.04,2.01-.06,3.06-.06,1.12,0,2.22.02,3.32.06h41.82L174.56,0h-87.28v.05c-10.1.24-19.76,1.48-28.98,3.74-10.32,2.53-19.38,6.59-27.17,12.18-7.8,5.6-14,12.96-18.61,22.06-4.61,9.11-6.92,20.36-6.92,33.75,0,11.2,1.48,20.69,4.45,28.48,2.96,7.8,7.3,14.49,13.01,20.09,5.71,5.6,12.84,10.54,21.41,14.82,8.56,4.28,18.55,8.4,29.97,12.35,6.37,2.2,12.29,4.39,17.79,6.59,5.49,2.2,10.32,4.39,14.49,6.59,4.17,2.2,7.46,4.45,9.88,6.75,2.41,2.3,3.62,4.77,3.62,7.41,0,2.86-.99,5.38-2.96,7.57-1.98,2.2-4.61,4.06-7.9,5.6-3.29,1.54-6.97,2.69-11.03,3.46-4.07.77-8.18,1.15-12.35,1.15-5.71,0-11.03-.33-15.97-.99-4.94-.66-9.77-1.81-14.49-3.46-4.72-1.65-9.61-3.73-14.66-6.26-5.05-2.52-10.65-5.54-16.8-9.06L0,214.37c12.52,8.78,25.96,15.31,40.35,19.59,14.38,4.28,30.25,6.42,47.59,6.42,12.29,0,23.71-1.37,34.25-4.12,10.54-2.74,19.65-7.02,27.34-12.84,7.68-5.82,13.78-13.34,18.28-22.56,4.5-9.22,6.75-20.3,6.75-33.26,0-12.07-1.7-22-5.11-29.8-3.41-7.79-8.13-14.21-14.16-19.26-6.04-5.05-13.07-9.22-21.08-12.51-8.02-3.29-16.63-6.47-25.85-9.55-6.15-2.19-12.19-4.28-18.11-6.26-5.93-1.98-11.09-4.12-15.48-6.42-4.4-2.3-7.96-4.83-10.7-7.57-2.75-2.74-4.12-5.98-4.12-9.71,0-4.39,2.31-8.61,6.92-12.68Z"/><polygon class="uuid-15661bce-bd7c-4c14-91f9-1b999430cb87" points="503.61 0 444.66 0 443.01 0 355.92 0 328.51 0 194.86 0 158.3 47.72 194.86 47.72 194.86 238.59 349.33 238.59 365.8 190.87 254.14 190.87 254.14 143.15 303.22 143.15 319.69 95.44 254.14 95.44 254.14 47.72 328.51 47.72 328.51 47.72 426.79 47.72 361 237.38 421.27 237.38 473.64 85.8 498.67 155.32 462.11 202.12 515.47 202.12 536.55 261.12 606.7 288.25 503.61 0"/><polygon class="uuid-15661bce-bd7c-4c14-91f9-1b999430cb87" points="701.09 0 701.09 0 573.79 0 521.45 0 537.23 46.11 615.29 46.11 615.29 279.96 674.57 253.61 674.57 46.11 717.48 46.11 701.09 0"/><polygon class="uuid-15661bce-bd7c-4c14-91f9-1b999430cb87" points="760.72 0 716.19 0 732 46.11 760.72 46.11 760.72 230.55 820 230.55 820 0 760.72 0"/></g></svg>