<svg id="uuid-4641eb11-81ce-4e94-b6a8-6119d16810d4" xmlns="http://www.w3.org/2000/svg"
     viewBox="0 0 225.94 407.41">
    <defs>
        <style>
            .uuid-bb9f96d6-83c3-4314-8d35-31ab1aadf796{fill:none;}.uuid-bb9f96d6-83c3-4314-8d35-31ab1aadf796,.uuid-3775c16d-7c22-4fcc-9d4f-d799be235ebe,.uuid-034d397d-55ac-43a2-8bf3-1171d735ae2d,.uuid-1bbcdf4e-7b6c-4c82-a9e7-7d591c636562{stroke-width:0px;}.uuid-a623b97f-80d8-4b4e-947d-7fbbeff72d02{fill:url(#uuid-ab9ff1b4-dc61-4805-beac-497314a9b5f1);stroke:#000;}.uuid-3775c16d-7c22-4fcc-9d4f-d799be235ebe{fill:#fff;}.uuid-3775c16d-7c22-4fcc-9d4f-d799be235ebe,.uuid-1bbcdf4e-7b6c-4c82-a9e7-7d591c636562{fill-rule:evenodd;}
        </style>
        <radialGradient id="uuid-ab9ff1b4-dc61-4805-beac-497314a9b5f1" cx="86.63" cy="242.93" fx="86.63" fy="242.93"
                        r="54.72" gradientTransform="translate(0 410) scale(1 -1)" gradientUnits="userSpaceOnUse">
            <stop offset="0" stop-color="#fff"/>
            <stop offset=".06" stop-color="#fbc8b4"/>
            <stop offset=".07" stop-color="#fbc3b0"/>
            <stop offset=".18" stop-color="#f7978b"/>
            <stop offset=".3" stop-color="#f4716b"/>
            <stop offset=".42" stop-color="#f15251"/>
            <stop offset=".55" stop-color="#ef3a3d"/>
            <stop offset=".68" stop-color="#ee292f"/>
            <stop offset=".82" stop-color="#ed1f27"/>
            <stop offset="1" stop-color="#ed1c24"/>
        </radialGradient>
    </defs>
    <path class="uuid-1bbcdf4e-7b6c-4c82-a9e7-7d591c636562"
          d="m48.86,43.52c8.42,17.64,2.74,140.83-7.13,184.03-9.86,43.27-19.73,98.28-22.03,144.58-1.01,19.73,2.02,27.5,14.9,27.5,22.75,0,51.62-47.95,87.84-46.87,36.29,1.08,47.81,55.01,64.8,54.65s30.67-6.26,30.82-58.75c.5-156.67-130.82-283.68-169.2-305.14h0Z"/>
    <path class="uuid-1bbcdf4e-7b6c-4c82-a9e7-7d591c636562"
          d="m162.76,168.73c7.99,13.46,28.37,3.1,29.23-12.1.86-15.19-1.37-34.34-11.23-35.06-9.86-.72-16.92-10.58-26.78-11.3s-20.45,9.14-25.06-3.96,12.38-18.65,25.06-20.74c-11.3-11.3-17.93-23.83-22.9-36.86s-8.64-24.98,5.26-30.1c13.9-5.11,12.74,21.17,28.66,33.19-4.68-17.71-6.41-25.06-6.05-35.35s-.36-18.14,14.26-16.13c14.62,2.02,8.28,32.4,19.66,44.78,3.46-11.74,5.54-26.64,13.9-32.76s27.36-6.26,15.26,18.86,3.53,38.74-.14,58.54-15.05,16.2-19.94,28.94,2.88,41.76-6.34,54.79-10.87,33.05-4.9,49.03c-18.36-17.14-27.94-53.78-27.94-53.78h0Z"/>
    <path class="uuid-1bbcdf4e-7b6c-4c82-a9e7-7d591c636562"
          d="m48.35,185.65c-7.42,50.83-33.19,56.88-34.49,77.98-1.3,21.1,6.84,23.11,6.34,42.62S2.35,333.68.26,344.26s8.93,13.97,15.34,13.97,12.82-28.08,15.41-45.94c2.59-17.86-8.5-28.37-8.5-40.61s16.06-34.63,13.1-14.98c13.32-21.02,19.66-47.81,12.74-71.06h0Z"/>
    <path class="uuid-3775c16d-7c22-4fcc-9d4f-d799be235ebe"
          d="m58.29,205.01c-5.62,27.5-40.68,181.08-22.82,183.02,17.86,1.94,43.27-47.52,84.89-47.16,41.69.36,58.1,55.44,68.26,55.08,10.15-.36,16.85,3.6,17.93-58.46s-36.79-141.34-59.18-176.26c-30.38,1.94-63.07,26.28-89.06,43.78h0Z"/>
    <path class="uuid-bb9f96d6-83c3-4314-8d35-31ab1aadf796"
          d="m139.16,172.18c-1.95-18.25-19.12-25.42-35.66-23.17-13.89,1.89-32.4,13.61-34.11,28.64-1.92,16.94,11.4,32.52,28.36,33.2,15.03.6,31.18-6.67,37.93-20.79,2.73-5.7,3.8-11.58,3.48-17.89"/>
    <path class="uuid-034d397d-55ac-43a2-8bf3-1171d735ae2d"
          d="m147.08,171.53c-1.66-17.19-14.41-27.99-30.9-30.63-15.92-2.55-33.26,5-44.41,16.15-12.54,12.54-13.04,29.98-4.26,44.83,8.66,14.66,27.85,19.5,43.56,15.84,21.51-5.02,37.4-23.82,36-46.19"/>
    <path class="uuid-a623b97f-80d8-4b4e-947d-7fbbeff72d02"
          d="m139.16,177.94c-1.49,15.63-13.95,28.18-28.94,31.82-15.87,3.85-33.39-2.26-39.1-18.58-2.91-8.33-2.37-16.88,2.64-24.2,4.22-6.17,11.03-11,17.78-14.07,13.92-6.33,33.83-7.03,43.53,7.08,3.68,5.35,4.32,11.64,4.09,17.94"/>
</svg>