<?xml version="1.0" encoding="UTF-8" standalone="no"?>
<!DOCTYPE svg PUBLIC "-//W3C//DTD SVG 1.1//EN" "http://www.w3.org/Graphics/SVG/1.1/DTD/svg11.dtd">
<!-- Created with Vectornator (http://vectornator.io/) -->
<svg height="100%" stroke-miterlimit="10" style="fill-rule:nonzero;clip-rule:evenodd;stroke-linecap:round;stroke-linejoin:round;" version="1.1" viewBox="0 0 793.899 793.899" width="100%" xml:space="preserve" xmlns="http://www.w3.org/2000/svg" xmlns:xlink="http://www.w3.org/1999/xlink">
<defs>
<linearGradient gradientTransform="matrix(610.901 610.901 -610.901 610.901 6.00379e-06 4.05483e-06)" gradientUnits="userSpaceOnUse" id="LinearGradient" x1="0" x2="1" y1="0" y2="0">
<stop offset="0" stop-color="#06113d"/>
<stop offset="0.505523" stop-color="#1b4786"/>
<stop offset="1" stop-color="#06113e"/>
</linearGradient>
</defs>
<clipPath id="ArtboardFrame">
<rect height="793.899" width="793.899" x="0" y="0"/>
</clipPath>
<g clip-path="url(#ArtboardFrame)" id="layer1">
<g opacity="1">
<path d="M-4.31979e-06-2.68231e-07L793.899-2.68231e-07L793.899 793.899L-4.31979e-06 793.899L-4.31979e-06-2.68231e-07Z" fill="#1b4786" fill-rule="nonzero" opacity="1" stroke="none"/>
<path d="M-4.31979e-06-2.68231e-07L-4.31979e-06 610.898L610.896 610.898L610.896-2.68231e-07L-4.31979e-06-2.68231e-07Z" fill="url(#LinearGradient)" fill-rule="nonzero" opacity="1" stroke="none"/>
<path d="M610.901 610.901L610.901 793.899L793.899 793.899L793.899 610.901L610.901 610.901Z" fill="#051947" fill-rule="nonzero" opacity="1" stroke="none"/>
<path d="M88.6693 70.9787L108.152 70.9787L108.152 90.4609L88.6693 90.4609L88.6693 70.9787Z" fill="#ffffff" fill-rule="nonzero" opacity="1" stroke="none"/>
<path d="M107.666 172.48L107.666 102.247L89.1546 102.247L89.1546 172.411L107.666 172.411L107.666 172.48Z" fill="#ffffff" fill-rule="nonzero" opacity="1" stroke="none"/>
<path d="M230.245 173.174L230.245 155.979C227.541 155.979 225.253 155.841 223.589 155.563C221.647 155.286 220.191 154.593 219.221 153.622C218.25 152.651 217.626 151.265 217.28 149.393C217.002 147.66 216.864 145.372 216.864 142.598L216.864 118.124L230.245 118.124L230.245 102.247L216.864 102.247L216.864 74.9306L198.352 74.9306L198.352 142.806C198.352 148.561 198.837 153.414 199.808 157.297C200.779 161.11 202.443 164.23 204.731 166.587C207.018 168.944 210.069 170.608 213.744 171.648C217.488 172.688 222.202 173.174 227.818 173.174L230.245 173.174Z" fill="#ffffff" fill-rule="nonzero" opacity="1" stroke="none"/>
<path d="M336.183 172.48L336.183 69.5228L317.672 69.5228L317.672 172.48L336.183 172.48Z" fill="#ffffff" fill-rule="nonzero" opacity="1" stroke="none"/>
<path d="M180.534 109.18C175.403 103.634 168.193 100.861 159.041 100.861C154.604 100.861 150.513 101.762 146.908 103.565C143.233 105.367 140.183 107.863 137.687 111.052L136.716 112.37L136.716 111.191L136.716 102.247L118.482 102.247L118.482 172.411L136.855 172.411L136.855 135.041L136.855 137.606C136.855 137.19 136.855 136.774 136.855 136.358C137.063 129.772 138.657 124.919 141.708 121.799C144.967 118.471 148.919 116.807 153.425 116.807C158.764 116.807 162.854 118.471 165.558 121.66C168.193 124.849 169.579 129.356 169.579 135.111L169.579 135.111L169.579 135.319L169.579 135.319L169.579 135.319L169.579 172.411L188.23 172.411L188.23 132.615C188.299 122.631 185.664 114.727 180.534 109.18Z" fill="#ffffff" fill-rule="nonzero" opacity="1" stroke="none"/>
<path d="M253.124 130.812C253.124 125.681 259.017 116.738 271.705 116.668C284.393 116.668 290.355 125.612 290.355 130.743L253.124 130.812ZM308.104 137.26C308.104 132.199 307.203 127.484 305.469 123.047C303.667 118.679 301.171 114.796 298.051 111.468C294.862 108.141 291.048 105.575 286.611 103.703C282.174 101.831 277.251 100.93 271.913 100.93C266.852 100.93 262.068 101.901 257.631 103.773C253.193 105.714 249.311 108.279 246.052 111.538C242.794 114.796 240.159 118.679 238.287 123.116C236.346 127.553 235.444 132.337 235.444 137.398C235.444 142.46 236.346 147.244 238.148 151.681C239.951 156.118 242.516 160.001 245.706 163.259C248.895 166.518 252.847 169.152 257.423 171.024C261.998 172.966 267.06 173.936 272.468 173.936C288.137 173.936 297.843 166.795 303.667 160.139L290.355 150.017C287.582 153.345 280.926 157.851 272.606 157.851C267.406 157.851 263.108 156.673 259.849 154.246C256.591 151.889 254.372 148.561 253.193 144.47L252.985 143.846L308.104 143.846L308.104 137.26Z" fill="#ffffff" fill-rule="nonzero" opacity="1" stroke="none"/>
<path d="M365.582 166.144C365.165 167.188 364.538 168.128 363.807 168.859C363.077 169.59 362.137 170.216 361.093 170.634C360.049 171.051 359.005 171.26 357.752 171.26C356.603 171.26 355.455 171.051 354.411 170.634C353.367 170.216 352.427 169.59 351.696 168.859C350.965 168.128 350.339 167.188 349.921 166.144C349.504 165.1 349.295 164.056 349.295 162.803C349.295 161.655 349.504 160.506 349.921 159.462C350.339 158.418 350.965 157.478 351.696 156.748C352.427 156.017 353.367 155.39 354.411 154.973C355.455 154.555 356.499 154.346 357.752 154.346C358.9 154.346 360.049 154.555 361.093 154.973C362.137 155.39 363.077 156.017 363.807 156.748C364.538 157.478 365.165 158.418 365.582 159.462C366 160.506 366.209 161.55 366.209 162.803C366.209 164.056 366 165.1 365.582 166.144ZM367.253 158.836C366.731 157.583 366 156.539 365.06 155.599C364.121 154.66 363.077 153.929 361.824 153.407C360.571 152.885 359.213 152.571 357.856 152.571C356.395 152.571 355.142 152.885 353.889 153.407C352.636 153.929 351.592 154.66 350.652 155.599C349.713 156.539 348.982 157.583 348.46 158.836C347.938 160.089 347.624 161.446 347.624 162.803C347.624 164.265 347.938 165.518 348.46 166.771C348.982 168.023 349.713 169.068 350.652 170.007C351.592 170.947 352.636 171.678 353.889 172.2C355.142 172.722 356.499 173.035 357.856 173.035C359.318 173.035 360.571 172.722 361.824 172.2C363.077 171.678 364.121 170.947 365.06 170.007C366 169.068 366.731 168.023 367.253 166.771C367.775 165.518 368.088 164.16 368.088 162.803C368.088 161.446 367.775 160.089 367.253 158.836Z" fill="#ffffff" fill-rule="nonzero" opacity="1" stroke="none"/>
<path d="M358.587 161.968C358.274 161.968 357.961 161.968 357.543 161.968L355.977 161.968L355.977 158.627L357.543 158.627C357.856 158.627 358.169 158.627 358.587 158.627C358.9 158.627 359.213 158.731 359.527 158.836C359.84 158.94 360.049 159.149 360.153 159.358C360.362 159.567 360.362 159.88 360.362 160.297C360.362 160.715 360.257 161.028 360.153 161.237C359.945 161.446 359.736 161.655 359.527 161.759C359.213 161.864 358.9 161.968 358.587 161.968ZM359.736 163.743C360.571 163.638 361.197 163.325 361.719 162.803C362.241 162.281 362.554 161.55 362.554 160.506C362.554 159.358 362.241 158.523 361.51 157.896C360.884 157.27 359.736 156.956 358.378 156.956L353.784 156.956L353.784 168.754L355.977 168.754L355.977 163.952L357.543 163.952L360.466 168.754L362.763 168.754L359.736 163.743Z" fill="#ffffff" fill-rule="nonzero" opacity="1" stroke="none"/>
<path d="M381.864 398.405C381.864 377.045 389.236 359.177 403.98 344.801C418.723 330.287 437.153 323.031 459.268 323.031C481.384 323.031 499.742 330.219 514.344 344.596C528.946 358.835 536.247 376.635 536.247 397.994C536.247 419.353 528.875 437.29 514.131 451.803C499.388 466.18 481.029 473.368 459.056 473.368C436.94 473.368 418.511 466.249 403.767 452.009C389.165 437.632 381.864 419.764 381.864 398.405ZM409.296 397.994C409.296 412.918 414.045 425.378 423.543 435.373C433.042 445.368 444.95 450.366 459.268 450.366C473.445 450.366 485.211 445.437 494.568 435.578C503.924 425.72 508.603 413.329 508.603 398.405C508.603 383.618 503.853 371.226 494.355 361.231C484.857 351.099 473.09 346.033 459.056 346.033C444.737 346.033 432.829 350.962 423.331 360.82C413.974 370.679 409.296 383.07 409.296 397.994Z" fill="#ffffff" fill-rule="nonzero" opacity="1" stroke="none"/>
<path d="M295.924 449.955C305.405 449.955 314.011 448.243 321.741 444.82C329.618 441.261 337.422 435.647 345.152 427.979L361.343 444.82C352.3 454.268 342.089 461.388 330.712 466.18C319.48 470.972 307.228 473.368 293.954 473.368C270.762 473.368 251.727 466.385 236.849 452.419C222.117 438.317 214.751 420.312 214.751 398.405C214.751 377.182 222.117 359.314 236.849 344.801C251.581 330.287 270.033 323.031 292.204 323.031C314.813 323.031 333.119 329.945 347.121 343.774C361.124 357.466 368.126 375.265 368.126 397.173C368.126 399.089 367.98 401.006 367.688 402.923C367.542 404.703 367.25 406.688 366.813 408.879L243.851 408.879C246.039 421.339 251.873 431.334 261.354 438.864C270.981 446.258 282.504 449.955 295.924 449.955ZM292.423 345.828C280.025 345.828 269.377 349.593 260.479 357.124C251.581 364.517 246.039 374.444 243.851 386.903L339.464 386.903C337.713 374.033 332.681 363.969 324.367 356.713C316.053 349.456 305.405 345.828 292.423 345.828Z" fill="#ffffff" fill-rule="nonzero" opacity="1" stroke="none"/>
<path d="M554.67 325.424L554.67 472.424L581.527 472.424L581.527 375.993L661.169 472.424L688.025 472.424L688.025 325.424L661.169 325.424L661.169 421.854L581.527 325.424L554.67 325.424Z" fill="#ffffff" fill-rule="evenodd" opacity="1" stroke="none"/>
<path d="M74.7935 326.752L77.3994 329.982L132.645 398.487L74.7935 470.222L106.748 470.222L148.62 418.296L190.494 470.222L222.448 470.222L164.597 398.487L222.448 326.752L190.494 326.752L148.62 378.678L106.748 326.752L74.7935 326.752Z" fill="#ffffff" fill-rule="evenodd" opacity="1" stroke="none"/>
<path d="M715.955 340.831C715.537 341.875 714.911 342.815 714.18 343.545C713.449 344.276 712.509 344.903 711.465 345.32C710.421 345.738 709.377 345.947 708.124 345.947C706.976 345.947 705.827 345.738 704.783 345.32C703.739 344.903 702.799 344.276 702.069 343.545C701.338 342.815 700.711 341.875 700.294 340.831C699.876 339.787 699.667 338.743 699.667 337.49C699.667 336.341 699.876 335.193 700.294 334.149C700.711 333.105 701.338 332.165 702.069 331.434C702.799 330.703 703.739 330.077 704.783 329.659C705.827 329.242 706.871 329.033 708.124 329.033C709.273 329.033 710.421 329.242 711.465 329.659C712.509 330.077 713.449 330.703 714.18 331.434C714.911 332.165 715.537 333.105 715.955 334.149C716.372 335.193 716.581 336.237 716.581 337.49C716.581 338.743 716.372 339.787 715.955 340.831ZM717.625 333.522C717.103 332.27 716.372 331.226 715.433 330.286C714.493 329.346 713.449 328.615 712.196 328.093C710.943 327.571 709.586 327.258 708.229 327.258C706.767 327.258 705.514 327.571 704.261 328.093C703.008 328.615 701.964 329.346 701.025 330.286C700.085 331.226 699.354 332.27 698.832 333.522C698.31 334.775 697.997 336.133 697.997 337.49C697.997 338.952 698.31 340.204 698.832 341.457C699.354 342.71 700.085 343.754 701.025 344.694C701.964 345.634 703.008 346.364 704.261 346.886C705.514 347.408 706.871 347.722 708.229 347.722C709.69 347.722 710.943 347.408 712.196 346.886C713.449 346.364 714.493 345.634 715.433 344.694C716.372 343.754 717.103 342.71 717.625 341.457C718.147 340.204 718.46 338.847 718.46 337.49C718.46 336.133 718.147 334.775 717.625 333.522Z" fill="#ffffff" fill-rule="nonzero" opacity="1" stroke="none"/>
<path d="M708.959 336.655C708.646 336.655 708.333 336.655 707.915 336.655L706.349 336.655L706.349 333.314L707.915 333.314C708.229 333.314 708.542 333.314 708.959 333.314C709.273 333.314 709.586 333.418 709.899 333.523C710.212 333.627 710.421 333.836 710.526 334.045C710.734 334.253 710.734 334.567 710.734 334.984C710.734 335.402 710.63 335.715 710.526 335.924C710.317 336.133 710.108 336.341 709.899 336.446C709.586 336.55 709.273 336.655 708.959 336.655L708.959 336.655ZM710.108 338.43C710.943 338.325 711.57 338.012 712.092 337.49C712.614 336.968 712.927 336.237 712.927 335.193C712.927 334.044 712.614 333.209 711.883 332.583C711.256 331.956 710.108 331.643 708.751 331.643L704.157 331.643L704.157 343.441L706.349 343.441L706.349 338.638L707.915 338.638L710.839 343.441L713.136 343.441L710.108 338.43Z" fill="#ffffff" fill-rule="nonzero" opacity="1" stroke="none"/>
</g>
</g>
</svg>
