<svg stroke-miterlimit="10"
     style="fill-rule:nonzero;clip-rule:evenodd;stroke-linecap:round;stroke-linejoin:round;" version="1.1"
     viewBox="8.72165e-17 0 111.124 52.4899" xml:space="preserve" xmlns="http://www.w3.org/2000/svg"
>
<defs/>
    <g id="Untitled">
<path d="M12.5014 40.579C12.5014 40.579 10.4851 41.8056 13.9049 42.1571C18.0128 42.682 20.2151 42.5953 24.7725 41.7189C24.7725 41.7189 25.9992 42.5063 27.6652 43.1224C17.4103 47.5042 4.43969 42.86 12.5025 40.5813L12.5014 40.579ZM11.1869 34.8827C11.1869 34.8827 8.99601 36.5487 12.4135 36.899C16.8831 37.3372 20.4011 37.4239 26.4374 36.1984C26.4374 36.1984 27.2247 37.0747 28.5404 37.5129C16.1825 41.194 2.33441 37.8632 11.1869 34.8839L11.1869 34.8827ZM35.3777 44.874C35.3777 44.874 36.868 46.1007 33.7117 47.0649C27.8398 48.8176 9.08388 49.3436 3.82465 47.0649C1.98409 46.2775 5.49062 45.125 6.62942 44.9619C7.7705 44.6994 8.38211 44.6994 8.38211 44.6994C6.36697 43.2959-5.02782 47.592 2.59685 48.8073C23.5436 52.2248 40.8092 47.317 35.3754 44.8637L35.3777 44.874ZM13.4645 28.9229C13.4645 28.9229 3.91137 31.2016 10.0458 31.9901C12.6748 32.3404 17.8462 32.2525 22.6661 31.9022C26.6097 31.5519 30.5544 30.8502 30.5544 30.8502C30.5544 30.8502 29.1509 31.4641 28.1878 32.0768C18.459 34.618-0.209055 33.4803 5.13803 30.8502C9.69549 28.6593 13.4645 28.9103 13.4645 28.9103L13.4645 28.9229ZM30.5555 38.476C40.3711 33.3925 35.8136 28.4847 32.6585 29.0986C31.8712 29.2743 31.5175 29.4489 31.5175 29.4489C31.5175 29.4489 31.7799 28.924 32.3938 28.7483C38.6161 26.5574 43.525 35.3209 30.3775 38.7396C30.3775 38.7396 30.4654 38.6517 30.5532 38.4771L30.5555 38.476ZM14.4298 52.323C23.8951 52.9368 38.3582 51.9726 38.7074 47.503C38.7074 47.503 38.0068 49.2557 30.907 50.5703C22.8441 52.0605 12.8529 51.8848 6.97859 50.9206C6.97859 50.9206 8.20525 51.9726 14.4298 52.3241L14.4298 52.323Z"
      fill="#4e7896" fill-rule="nonzero" opacity="1" stroke="none"/>
        <path d="M24.5957 6.08088e-15C24.5957 6.08088e-15 30.0295 5.52281 19.4243 13.8481C10.9233 20.5964 17.4845 24.4533 19.4243 28.835C14.4287 24.3654 10.8354 20.4219 13.2887 16.7396C16.8831 11.3058 26.7854 8.67675 24.5945 0L24.5957 6.08088e-15ZM21.7909 25.1539C24.3321 28.0465 21.0891 30.6767 21.0891 30.6767C21.0891 30.6767 27.575 27.3448 24.5945 23.2255C21.8788 19.2819 19.7746 17.3535 31.1671 10.7798C31.1671 10.7798 13.1997 15.2494 21.7898 25.1528L21.7909 25.1539Z"
              fill="#f58219" fill-rule="nonzero" opacity="1" stroke="none"/>
        <path d="M73.8589 45.3559L73.8589 31.0889C73.8589 27.4479 71.8209 24.975 66.726 24.975C63.8144 24.975 61.3379 25.7032 59.1557 26.5756L59.8839 29.1963C61.4845 28.6135 63.5249 28.032 65.707 28.032C68.4732 28.032 69.7829 29.1963 69.7829 31.5263L69.7829 33.4201L68.3388 33.4201C61.3501 33.4201 58.149 36.0409 58.149 40.2622C58.149 43.7565 60.3323 45.7945 64.2628 45.7945C66.7382 45.7945 68.6308 44.6301 70.3767 43.1737L70.6675 45.3571L73.8686 45.3571L73.8589 45.3559ZM69.7805 40.6984C68.3266 42.0081 66.7236 42.7363 65.2672 42.7363C63.3734 42.7363 62.2102 41.5719 62.2102 39.5352C62.2102 37.4985 63.3746 36.0409 68.0333 36.0409L69.7805 36.0409L69.7805 40.6996L69.7805 40.6984ZM87.5406 45.3571L82.4457 45.3571L76.333 25.4137L80.7009 25.4137L84.4861 37.6439L85.3596 41.2848C87.2534 36.0433 88.7074 30.6576 89.2902 25.4173L93.6569 25.4173C92.4925 31.9686 90.4558 39.1015 87.543 45.3607L87.5406 45.3571ZM111.124 45.3571L111.124 31.0889C111.124 27.4479 109.086 24.975 103.988 24.975C101.077 24.975 98.6027 25.7032 96.4181 26.5756L97.0009 29.1963C98.7481 28.6135 100.786 28.032 102.969 28.032C105.736 28.032 107.045 29.1963 107.045 31.5263L107.045 33.4201L105.591 33.4201C98.6027 33.4201 95.4016 36.0409 95.4016 40.2622C95.4016 43.7565 97.4396 45.7945 101.37 45.7945C103.991 45.7945 105.883 44.6301 107.629 43.1737L107.92 45.3571L111.121 45.3571L111.124 45.3571ZM107.048 40.6984C105.594 42.0081 103.991 42.7363 102.534 42.7363C100.641 42.7363 99.4775 41.5719 99.4775 39.5352C99.4775 37.4985 100.642 36.0409 105.301 36.0409L107.048 36.0409L107.048 40.6996L107.048 40.6984ZM53.621 48.7048C52.4566 50.452 50.7094 51.7617 48.5261 52.4899L46.6323 50.1612C48.0887 49.2876 49.5438 47.9778 50.1266 46.8135C50.7094 45.7945 50.8548 44.3381 50.8548 40.9904L50.8548 18.2784L55.2228 18.2784L55.2228 40.6984C55.2228 45.2117 54.7854 46.9576 53.6222 48.7048L53.621 48.7048Z"
              fill="#4e7896" fill-rule="nonzero" opacity="1" stroke="none"/>
</g>
</svg>
