<?xml version="1.0" encoding="UTF-8"?><svg id="uuid-124ab539-f62d-488d-a4ad-2f258b73e0fa" xmlns="http://www.w3.org/2000/svg" viewBox="0 0 125.34 58.49"><defs><style>.uuid-d7c707b4-e5c7-4407-8cf0-fc4f40e62634{fill:#fff;stroke-width:0px;}</style></defs><g id="uuid-06e3731c-ead6-4bf6-a17a-ae98d8c7f739"><path class="uuid-d7c707b4-e5c7-4407-8cf0-fc4f40e62634" d="m16.71,16.71h16.71v-8.36h-16.71V0h25.07v16.71h8.36v25.07h-8.36v8.36h8.36v-8.36h8.36v16.71h-25.07v-16.71h-8.36v8.36h-8.36v-8.36h-8.36v-25.07H0v-8.36h16.71v8.36ZM0,50.14h16.71v8.36H0v-8.36Zm25.07-25.07h-8.36v8.36h8.36v-8.36Zm8.36,8.36h8.36v-8.36h-8.36v8.36Z"/><path class="uuid-d7c707b4-e5c7-4407-8cf0-fc4f40e62634" d="m116.98,0v16.71h8.36v16.71h-8.36v-8.36h-8.36v8.36h8.36v16.71h8.36v8.36h-25.07v-8.36h8.36v-8.36h-8.36v8.36h-8.36v-8.36h-8.36v8.36h8.36v8.36h-25.07v-8.36h8.36v-16.71h8.36v-8.36h-16.71v-8.36h16.71v-8.36h-8.36V0h41.78Zm-25.07,8.36v8.36h8.36v-8.36h-8.36Zm0,16.71v8.36h8.36v-8.36h-8.36Z"/></g></svg>