<?xml version="1.0" encoding="UTF-8"?><svg id="uuid-cefdfe3a-e8d7-41a8-a08a-ba52ee411967" xmlns="http://www.w3.org/2000/svg" viewBox="0 0 127.01 60.16"><defs><style>.uuid-5f2bedd8-bda7-4560-b8e1-96c34bb20195{fill:#fff;stroke-width:0px;}</style></defs><g id="uuid-50be3ee6-b3d2-45b5-9e73-ee87039de997"><path class="uuid-5f2bedd8-bda7-4560-b8e1-96c34bb20195" d="m40.11,13.37v-6.68H13.37V0h33.42v13.37h6.68v26.74h-13.37v13.37h13.37v-13.37h6.68v20.05h-26.74v-20.05h-6.68v6.68h-6.68v-6.68H6.68v-20.05H0v-6.69h6.68v-6.68h6.68v6.68h26.74ZM0,53.48h13.37v6.68H0v-6.68ZM13.37,20.05v13.37h13.37v-13.37h-13.37Zm0,26.74h6.69v6.68h-6.69v-6.68Zm20.05-26.74v13.37h13.37v-13.37h-13.37Z"/><path class="uuid-5f2bedd8-bda7-4560-b8e1-96c34bb20195" d="m86.9,33.42v13.37h-6.69v-13.37h-13.37v-6.68h6.68v-13.37h13.37v-6.68h-13.37V0h46.79v20.05h-13.37v6.68h20.05v13.37h-6.68v-6.69h-6.68v20.05h-13.37v-6.68h6.69v-13.37h-20.05Zm0,26.74h-20.05v-6.68h20.05v6.68Zm-6.69-40.11v6.68h6.69v-6.68h-6.69Zm6.69,26.74h6.68v6.68h-6.68v-6.68Zm6.68-40.11v6.68h6.68v-6.68h-6.68Zm6.68,20.05v-6.68h-6.68v6.68h6.68Zm-6.68,13.37h6.68v6.68h-6.68v-6.68Zm13.37-33.42v6.68h6.68v-6.68h-6.68Zm6.68,46.79h13.37v6.68h-13.37v-6.68Z"/></g></svg>