<?xml version="1.0" encoding="UTF-8"?><svg id="uuid-8958d677-3e7b-4212-8fd2-a218e9e9bd8f" xmlns="http://www.w3.org/2000/svg" viewBox="0 0 128.12 61.28"><defs><style>.uuid-c32760be-9086-4e4c-b3f3-46104529da11{fill:#fff;stroke-width:0px;}</style></defs><g id="uuid-cb7219d0-534c-4733-905d-65ae80b86869"><path class="uuid-c32760be-9086-4e4c-b3f3-46104529da11" d="m39,16.71v-5.57H11.14V0h5.57v5.57h27.85v11.14h11.14v22.28h-16.71v16.71h16.71v-11.14h5.57v16.71h-27.85v-22.28h-5.57v11.14h-5.57v-11.14H5.57v-16.71H0v-5.57h5.57v-5.57h5.57v5.57h27.85Zm-22.28,38.99v5.57H0v-5.57h16.71Zm-5.57-33.42v11.14h16.71v-11.14H11.14Zm5.57,27.85h5.57v5.57h-5.57v-5.57Zm33.42-27.85h-16.71v11.14h16.71v-11.14Z"/><path class="uuid-c32760be-9086-4e4c-b3f3-46104529da11" d="m83.56,0h5.57v5.57h11.14V0h5.57v5.57h16.71v11.14h5.57v16.71h-5.57v16.71h-5.57v-16.71h-38.99v16.71h-5.57v-16.71h-5.57v-16.71h16.71v-5.57h-16.71v-5.57h16.71V0Zm0,55.71v5.57h-16.71v-5.57h16.71Zm-11.14-27.85h11.14v-5.57h-11.14v5.57Zm22.28,27.85h-11.14v-5.57h11.14v5.57Zm5.57-38.99v-5.57h-11.14v5.57h11.14Zm-11.14,5.57v5.57h11.14v-5.57h-11.14Zm5.57,16.71h5.57v11.14h-5.57v-11.14Zm16.71,16.71h-11.14v-5.57h11.14v5.57Zm5.57-38.99v-5.57h-11.14v5.57h11.14Zm5.57,11.14v-5.57h-16.71v5.57h16.71Zm5.57,27.85v5.57h-16.71v-5.57h16.71Z"/></g></svg>