<?xml version="1.0" encoding="UTF-8"?><svg id="uuid-de26786b-12f7-44df-8ed5-8bbf9595b4a9" xmlns="http://www.w3.org/2000/svg" viewBox="0 0 129.55 66.85"><defs><style>.uuid-62868281-4c9c-4f52-8c97-903547955415{fill:#fff;stroke-width:0px;}</style></defs><g id="uuid-24feb6df-10af-42e6-8b60-4dc7272efe29"><path class="uuid-62868281-4c9c-4f52-8c97-903547955415" d="m16.71,4.14V0h4.14v8.36h25.13v4.21h-4.21v4.14h-4.21v4.14h12.57v-4.14h4.14v4.14h4.21v4.21h-4.21v20.92h-4.14v-4.21h-12.57v20.92h20.92v-8.42h4.21v12.57h-25.13v-4.14h-4.14v-20.92h-4.14v8.36h-4.21v4.14h-4.21v4.21h-4.14v4.21h-8.36v4.14H0v-4.14h8.36v-4.21h8.36v-4.21h4.14v-4.14h4.21v-8.36h-12.5v4.21h-4.21v-20.92h-4.21v4.21H0v-4.21h4.14v-4.21h4.21v-4.14h4.21v-8.36h4.14v-4.21Zm20.86,10.5v-2.07h-20.86v4.14h-4.14v4.14h20.86v-4.14h4.14v-2.07Zm-8.29,16.71v-6.28H12.57v12.5h16.71v-6.22Zm20.86,0v-6.28h-16.71v12.5h16.71v-6.22Z"/><path class="uuid-62868281-4c9c-4f52-8c97-903547955415" d="m87.7,2.07V0h4.21v4.14h12.5V0h4.21v4.14h8.36V0h4.14v4.14h4.21v4.21h-4.21v8.36h-12.5v4.14h20.92v12.57h-4.21v4.14h-4.21v-4.14h-4.14v20.86h-4.14v-16.71h-29.28v16.71h-4.14v-16.71h-4.21v4.21h-8.36v-4.21h8.36v-4.14h8.36v-4.14h4.14v-4.21h-16.71v-12.5h16.71v-4.21h-16.71v-4.21h16.71v-2.07Zm0,16.71v-2.07h-12.5v4.14h12.5v-2.07Zm8.42,29.28v-6.28h4.14v12.5h8.36v4.21h8.36v4.21h4.14v4.14h-4.14v-4.14h-8.36v-4.21h-8.36v-4.21h-4.14v4.21h-4.21v4.21h-8.36v4.14h-8.36v-4.14h8.36v-4.21h8.36v-4.21h4.21v-6.22Zm8.29-18.78v-4.21h-12.5v4.21h-4.21v4.14h16.71v-4.14Zm0-18.85v-2.07h-12.5v4.21h12.5v-2.14Zm0,8.36v-2.07h-12.5v4.14h12.5v-2.07Zm12.57-8.36v-2.07h-8.36v4.21h8.36v-2.14Zm8.36,18.85v-4.21h-16.71v8.36h8.36v-4.14h4.14v4.14h4.21v-4.14Z"/></g></svg>